Coordinates
version=1
nRows=17
nColumns=24
inDegrees=yes

Units are S.I. units (second, meters, Newtons, ...)
Angles are in degrees.

endheader
time	pelvis_tilt	pelvis_list	pelvis_rotation	pelvis_tx	pelvis_ty	pelvis_tz	hip_flexion_r	hip_adduction_r	hip_rotation_r	knee_angle_r	ankle_angle_r	subtalar_angle_r	mtp_angle_r	hip_flexion_l	hip_adduction_l	hip_rotation_l	knee_angle_l	ankle_angle_l	subtalar_angle_l	mtp_angle_l	lumbar_extension	lumbar_bending	lumbar_rotation
      3.28000000	     63.14151883	     -8.94493422	     -5.20498039	      0.41916099	      1.04929238	     -0.34986114	     14.01405094	     -0.53762470	      9.84361973	    -55.72954396	      8.09229037	     44.47417135	      0.00000000	      0.48686096	    -19.17686227	      0.80315496	    -61.32540929	     23.07879423	     30.94087000	      0.00000000	      0.00000000	      0.00000000	      0.00000000
      3.29000000	     63.13873880	     -8.95964020	     -5.21296616	      0.41917292	      1.04932746	     -0.34986477	     13.98971668	     -0.54215212	      9.87112058	    -55.81888225	      8.21161364	     44.58116824	      0.00000000	      0.47630243	    -19.19515435	      0.79595502	    -61.31958479	     23.07060816	     30.94415144	      0.00000000	      0.00000000	      0.00000000	      0.00000000
      3.30000000	     63.11572456	     -8.97514531	     -5.21673472	      0.41915364	      1.04939568	     -0.34987253	     13.95595992	     -0.53793563	      9.91135379	    -55.82842005	      8.29065188	     44.62749472	      0.00000000	      0.49277840	    -19.21329477	      0.80119250	    -61.31747517	     23.06727466	     30.94971074	      0.00000000	      0.00000000	      0.00000000	      0.00000000
      3.31000000	     63.07820109	     -8.98378751	     -5.21268762	      0.41911087	      1.04949147	     -0.34987822	     13.92355529	     -0.53482612	      9.95392606	    -55.78844283	      8.28204162	     44.57200115	      0.00000000	      0.53806124	    -19.22504727	      0.82089647	    -61.32190412	     23.07450536	     30.95783130	      0.00000000	      0.00000000	      0.00000000	      0.00000000
      3.32000000	     63.04234590	     -8.97780288	     -5.20003387	      0.41907181	      1.04953456	     -0.34987917	     13.91528733	     -0.54799402	      9.97110099	    -55.77817695	      8.13886815	     44.38355621	      0.00000000	      0.59915441	    -19.22424403	      0.85064682	    -61.33529190	     23.09751373	     30.96853416	      0.00000000	      0.00000000	      0.00000000	      0.00000000
      3.33000000	     63.03204161	     -8.95224799	     -5.18156828	      0.41907094	      1.04938278	     -0.34987339	     13.96532368	     -0.59333179	      9.91970539	    -55.91333187	      7.82890192	     44.05175475	      0.00000000	      0.64476762	    -19.20552505	      0.87952327	    -61.35961215	     23.13908251	     30.98155763	      0.00000000	      0.00000000	      0.00000000	      0.00000000
      3.34000000	     63.07330154	     -8.90742080	     -5.16228804	      0.41915612	      1.04900522	     -0.34986421	     14.11192770	     -0.68058462	      9.75534081	    -56.30471204	      7.35014356	     43.59520029	      0.00000000	      0.63204848	    -19.16576432	      0.89361701	    -61.39630499	     23.19785804	     30.99627567	      0.00000000	      0.00000000	      0.00000000	      0.00000000
      3.35000000	     63.18474883	     -8.84945537	     -5.14699034	      0.41939539	      1.04865839	     -0.34986499	     14.37897019	     -0.80715695	      9.45745112	    -56.99776290	      6.74254741	     43.06432105	      0.00000000	      0.52639999	    -19.10659016	      0.88238644	    -61.44515862	     23.26763088	     31.01155461	      0.00000000	      0.00000000	      0.00000000	      0.00000000
      3.36000000	     63.36204509	     -8.78871408	     -5.13858694	      0.41982640	      1.04870168	     -0.34988588	     14.74764582	     -0.95609380	      9.05451261	    -57.92074561	      6.08994553	     42.53656156	      0.00000000	      0.32675603	    -19.03676091	      0.84494624	    -61.50190118	     23.33807026	     31.02566781	      0.00000000	      0.00000000	      0.00000000	      0.00000000
      3.37000000	     63.56507372	     -8.73700062	     -5.13752594	      0.42036190	      1.04911486	     -0.34991247	     15.13775854	     -1.09955905	      8.63188606	    -58.87575907	      5.50782022	     42.10353206	      0.00000000	      0.07904631	    -18.97182025	      0.79235036	    -61.55619879	     23.39680530	     31.03645939	      0.00000000	      0.00000000	      0.00000000	      0.00000000
      3.38000000	     63.73005278	     -8.70484714	     -5.14160121	      0.42080755	      1.04951526	     -0.34991770	     15.42924324	     -1.20555265	      8.30879940	    -59.59175112	      5.11713558	     41.85189480	      0.00000000	     -0.13657937	    -18.92947552	      0.74359039	    -61.59280359	     23.43225746	     31.04185449	      0.00000000	      0.00000000	      0.00000000	      0.00000000
      3.39000000	     63.80313648	     -8.69927170	     -5.14675398	      0.42099981	      1.04968154	     -0.34988886	     15.51853374	     -1.24603826	      8.19031004	    -59.82572670	      5.01058804	     41.84193508	      0.00000000	     -0.24207112	    -18.92248463	      0.71690664	    -61.59695804	     23.43648315	     31.04057911	      0.00000000	      0.00000000	      0.00000000	      0.00000000
      3.40000000	     63.76244075	     -8.72161228	     -5.14974252	      0.42086135	      1.04960415	     -0.34983349	     15.36469626	     -1.20587113	      8.32007527	    -59.46654240	      5.22243609	     42.08941938	      0.00000000	     -0.20080463	    -18.95335564	      0.72127490	    -61.56178331	     23.40738062	     31.03275288	      0.00000000	      0.00000000	      0.00000000	      0.00000000
      3.41000000	     63.62276273	     -8.76678764	     -5.15020836	      0.42039693	      1.04928675	     -0.34978833	     15.00490417	     -1.08986172	      8.66014192	    -58.58784687	      5.71347714	     42.55652517	      0.00000000	     -0.03597087	    -19.01421921	      0.75287982	    -61.49327361	     23.34972857	     31.02002940	      0.00000000	      0.00000000	      0.00000000	      0.00000000
      3.42000000	     63.43390757	     -8.82639177	     -5.14961476	      0.41975208	      1.04895313	     -0.34979896	     14.54346789	     -0.92497314	      9.10804864	    -57.42166062	      6.37773811	     43.15579836	      0.00000000	      0.18300326	    -19.09149952	      0.79807292	    -61.40954586	     23.27466749	     31.00518835	      0.00000000	      0.00000000	      0.00000000	      0.00000000
      3.43000000	     63.26068021	     -8.89252522	     -5.14947111	      0.41918910	      1.04898245	     -0.34984462	     14.10909476	     -0.75453218	      9.54099548	    -56.26634737	      7.06930518	     43.76790816	      0.00000000	      0.37727377	    -19.17148881	      0.84033973	    -61.33415856	     23.19750221	     30.99138078	      0.00000000	      0.00000000	      0.00000000	      0.00000000
      3.44000000	     63.14851838	     -8.95618824	     -5.15139783	      0.41890121	      1.04936454	     -0.34984387	     13.79857111	     -0.62161092	      9.86102312	    -55.37560518	      7.64036491	     44.26982813	      0.00000000	      0.49543007	    -19.24286969	      0.86693026	    -61.28671325	     23.13412068	     30.98138213	      0.00000000	      0.00000000	      0.00000000	      0.00000000
